<?xml version="1.0" encoding="UTF-8" standalone="no" ?>
<!DOCTYPE svg PUBLIC "-//W3C//DTD SVG 1.1//EN" "http://www.w3.org/Graphics/SVG/1.1/DTD/svg11.dtd">
<svg xmlns="http://www.w3.org/2000/svg" xmlns:xlink="http://www.w3.org/1999/xlink" version="1.1" width="500" height="500" viewBox="0 0 500 500" xml:space="preserve">
<desc>Created with Fabric.js 4.6.0</desc>
<defs>
</defs>
<g transform="matrix(12.2 0 0 12.2 250 250)" id="fJ6MDTrW0KEdVxoyO7SOp"  >
<path style="stroke: none; stroke-width: 1; stroke-dasharray: none; stroke-linecap: butt; stroke-dashoffset: 0; stroke-linejoin: miter; stroke-miterlimit: 4; fill: rgb(255,255,255); fill-rule: nonzero; opacity: 1;" vector-effect="non-scaling-stroke"  transform=" translate(-24, -24)" d="M 22 42 L 22 39 L 39 39 L 39 23.8 Q 39 20.900000000000002 37.75 18.225 Q 36.5 15.55 34.4 13.5 Q 32.3 11.45 29.599999999999998 10.225 Q 26.9 9 24 9 Q 21.1 9 18.4 10.225 Q 15.7 11.45 13.599999999999998 13.5 Q 11.499999999999998 15.55 10.249999999999998 18.225 Q 8.999999999999998 20.900000000000002 9 23.8 L 9 36 L 8 36 Q 6.35 36 5.175 34.825 Q 4 33.65 4 32 L 4 28 Q 4 26.85 4.55 25.975 Q 5.1 25.1 6 24.55 L 6.15 21.900000000000002 Q 6.6000000000000005 18.250000000000004 8.225000000000001 15.300000000000002 Q 9.850000000000001 12.350000000000001 12.275000000000002 10.300000000000002 Q 14.700000000000003 8.250000000000004 17.725 7.125000000000003 Q 20.75 6 24 6 Q 27.3 6 30.325 7.125 Q 33.35 8.25 35.75 10.325 Q 38.15 12.399999999999999 39.775 15.325 Q 41.4 18.25 41.85 21.85 L 42 24.450000000000003 Q 42.9 24.900000000000002 43.45 25.775000000000002 Q 44 26.650000000000002 44 27.700000000000003 L 44 32.300000000000004 Q 44 33.400000000000006 43.45 34.25000000000001 Q 42.900000000000006 35.10000000000001 42 35.550000000000004 L 42 39 Q 42 40.25 41.125 41.125 Q 40.25 42 39 42 Z M 18 27.5 Q 17.4 27.5 16.95 27.05 Q 16.5 26.6 16.5 25.95 Q 16.5 25.349999999999998 16.95 24.925 Q 17.4 24.5 18.05 24.5 Q 18.650000000000002 24.5 19.075 24.925 Q 19.5 25.35 19.5 26 Q 19.5 26.6 19.075 27.05 Q 18.65 27.5 18 27.5 Z M 30 27.5 Q 29.4 27.5 28.95 27.05 Q 28.5 26.6 28.5 25.95 Q 28.5 25.349999999999998 28.95 24.925 Q 29.4 24.5 30.05 24.5 Q 30.650000000000002 24.5 31.075 24.925 Q 31.5 25.35 31.5 26 Q 31.5 26.6 31.075 27.05 Q 30.65 27.5 30 27.5 Z M 12.05 24.9 Q 11.850000000000001 21.95 12.875 19.549999999999997 Q 13.9 17.15 15.625 15.474999999999998 Q 17.35 13.8 19.6 12.9 Q 21.85 12 24.1 12 Q 28.650000000000002 12 31.75 14.875 Q 34.85 17.75 35.55 22.05 Q 30.849999999999998 22 27.275 19.525000000000002 Q 23.7 17.050000000000004 21.75 13.1 Q 20.95 17.15 18.375 20.275 Q 15.8 23.4 12.05 24.9 Z" stroke-linecap="round" />
</g>
</svg>