<?xml version="1.0" encoding="UTF-8" standalone="no" ?>
<!DOCTYPE svg PUBLIC "-//W3C//DTD SVG 1.1//EN" "http://www.w3.org/Graphics/SVG/1.1/DTD/svg11.dtd">
<svg xmlns="http://www.w3.org/2000/svg" xmlns:xlink="http://www.w3.org/1999/xlink" version="1.1" width="500" height="500" viewBox="0 0 500 500" xml:space="preserve">
<desc>Created with Fabric.js 4.6.0</desc>
<defs>
</defs>
<g transform="matrix(11.09 0 0 11.09 250 250)" id="CsmJdXOXK-CYKSa8YVcUB"  >
<path style="stroke: none; stroke-width: 1; stroke-dasharray: none; stroke-linecap: butt; stroke-dashoffset: 0; stroke-linejoin: miter; stroke-miterlimit: 4; fill: rgb(255,255,255); fill-rule: nonzero; opacity: 1;" vector-effect="non-scaling-stroke"  transform=" translate(-27.82, -24)" d="M 42 21.65 L 40.85 19.15 L 38.35 18 L 40.85 16.85 L 42 14.350000000000001 L 43.15 16.85 L 45.65 18 L 43.15 19.15 Z M 32 31.849999999999998 L 29.55 26.449999999999996 L 24.15 23.999999999999996 L 29.549999999999997 21.549999999999997 L 31.999999999999996 16.15 L 34.449999999999996 21.549999999999997 L 39.849999999999994 23.999999999999996 L 34.449999999999996 26.449999999999996 Z M 42 33.65 L 40.85 31.15 L 38.35 30 L 40.85 28.85 L 42 26.35 L 43.15 28.85 L 45.65 30 L 43.15 31.15 Z M 13 46 Q 11.75 46 10.875 45.125 Q 10 44.25 10 43 L 10 5 Q 10 3.75 10.875 2.875 Q 11.75 2 13 2 L 35 2 Q 36.25 2 37.125 2.875 Q 38 3.75 38 5 L 38 12.3 L 35 12.3 L 35 9.5 L 13 9.5 L 13 38.5 L 35 38.5 L 35 35.7 L 38 35.7 L 38 43 Q 38 44.25 37.125 45.125 Q 36.25 46 35 46 Z M 13 41.5 L 13 43 L 35 43 L 35 41.5 Z M 13 6.5 L 35 6.5 L 35 5 L 13 5 Z M 13 5 L 13 6.5 L 13 5 Z M 13 43 L 13 41.5 L 13 43 Z" stroke-linecap="round" />
</g>
</svg>