<?xml version="1.0" encoding="UTF-8" standalone="no" ?>
<!DOCTYPE svg PUBLIC "-//W3C//DTD SVG 1.1//EN" "http://www.w3.org/Graphics/SVG/1.1/DTD/svg11.dtd">
<svg xmlns="http://www.w3.org/2000/svg" xmlns:xlink="http://www.w3.org/1999/xlink" version="1.1" width="500" height="500" viewBox="0 0 500 500" xml:space="preserve">
<desc>Created with Fabric.js 4.6.0</desc>
<defs>
</defs>
<g transform="matrix(10.27 0 0 10.27 250 250)" id="DmJp26BkV_qPAYEwtNZ_o"  >
<path style="stroke: none; stroke-width: 1; stroke-dasharray: none; stroke-linecap: butt; stroke-dashoffset: 0; stroke-linejoin: miter; stroke-miterlimit: 4; fill: rgb(255,255,255); fill-rule: nonzero; opacity: 1;" vector-effect="non-scaling-stroke"  transform=" translate(-24, -25)" d="M 13.2 6 Q 16.349999999999998 6 19.174999999999997 7.3 Q 22 8.6 24 10.85 Q 26 8.6 28.825 7.3 Q 31.65 6 34.8 6 Q 40.3 6 44.15 9.85 Q 48 13.7 48 19.2 Q 48 21.3 47.375 23.45 Q 46.75 25.599999999999998 45.45 27.75 Q 44.95 27.15 44.325 26.725 Q 43.7 26.3 43 26 Q 44 24.25 44.5 22.55 Q 45 20.85 45 19.2 Q 45 14.95 42.025 11.975 Q 39.05 9 34.8 9 Q 32.05 9 29.374999999999996 10.625 Q 26.699999999999996 12.25 24 15.55 Q 21.3 12.25 18.625 10.625 Q 15.95 9 13.2 9 Q 8.95 9 5.975 11.975 Q 3 14.95 3 19.2 Q 3 20.849999999999998 3.5 22.55 Q 4 24.25 5 26 Q 4.3 26.3 3.675 26.75 Q 3.05 27.2 2.55 27.8 Q 1.2499999999999998 25.650000000000002 0.6249999999999998 23.475 Q 0 21.3 0 19.2 Q 0 13.7 3.85 9.85 Q 7.7 6 13.2 6 Z M 0 44 L 0 41.35 Q 0 39.4 2.1 38.2 Q 4.2 37.00000000000001 7.5 37 Q 8.15 37 8.7 37.025 Q 9.25 37.05 9.799999999999999 37.15 Q 9.399999999999999 38 9.2 38.875 Q 9 39.75 9 40.75 L 9 44 Z M 12 44 L 12 40.75 Q 12 37.5 15.325 35.5 Q 18.65 33.5 24 33.5 Q 29.4 33.5 32.7 35.5 Q 36 37.5 36 40.75 L 36 44 Z M 39 44 L 39 40.75 Q 39 39.75 38.825 38.875 Q 38.650000000000006 38 38.25 37.15 Q 38.8 37.05 39.35 37.025 Q 39.9 37 40.5 37 Q 43.85 37 45.925 38.2 Q 48 39.4 48 41.35 L 48 44 Z M 24 36.5 Q 20 36.5 17.5 37.7 Q 15 38.900000000000006 15 40.75 L 15 41 L 33 41 L 33 40.7 Q 33 38.900000000000006 30.525 37.7 Q 28.049999999999997 36.5 24 36.5 Z M 7.5 35.5 Q 6.05 35.5 5.025 34.475 Q 4 33.45 4 32 Q 4 30.55 5.025 29.525 Q 6.05 28.5 7.5 28.5 Q 8.95 28.5 9.975 29.525 Q 11 30.55 11 32 Q 11 33.45 9.975 34.475 Q 8.95 35.5 7.5 35.5 Z M 40.5 35.5 Q 39.05 35.5 38.025 34.475 Q 37 33.45 37 32 Q 37 30.55 38.025 29.525 Q 39.05 28.5 40.5 28.5 Q 41.95 28.5 42.975 29.525 Q 44 30.55 44 32 Q 44 33.45 42.975 34.475 Q 41.95 35.5 40.5 35.5 Z M 24 32 Q 21.5 32 19.75 30.25 Q 18 28.5 18 26 Q 18 23.45 19.75 21.725 Q 21.5 20 24 20 Q 26.55 20 28.275 21.725 Q 30 23.45 30 26 Q 30 28.5 28.275 30.25 Q 26.549999999999997 32 24 32 Z M 24 23 Q 22.75 23 21.875 23.85 Q 21 24.700000000000003 21 26 Q 21 27.25 21.875 28.125 Q 22.75 29 24 29 Q 25.3 29 26.15 28.125 Q 27 27.25 27 26 Q 27 24.7 26.15 23.85 Q 25.3 23 24 23 Z M 24 26 Z M 24 41 Z" stroke-linecap="round" />
</g>
</svg>