<?xml version="1.0" encoding="UTF-8" standalone="no" ?>
<!DOCTYPE svg PUBLIC "-//W3C//DTD SVG 1.1//EN" "http://www.w3.org/Graphics/SVG/1.1/DTD/svg11.dtd">
<svg xmlns="http://www.w3.org/2000/svg" xmlns:xlink="http://www.w3.org/1999/xlink" version="1.1" width="500" height="500" viewBox="0 0 500 500" xml:space="preserve">
<desc>Created with Fabric.js 4.6.0</desc>
<defs>
</defs>
<g transform="matrix(10.89 0 0 10.89 253.41 247.11)" id="RKxJVogRQYjcL2TZM9q_i"  >
<path style="stroke: none; stroke-width: 1; stroke-dasharray: none; stroke-linecap: butt; stroke-dashoffset: 0; stroke-linejoin: miter; stroke-miterlimit: 4; fill: rgb(255,255,255); fill-rule: nonzero; opacity: 1;" vector-effect="non-scaling-stroke"  transform=" translate(-24.91, -22)" d="M 35.8 42 L 13.6 42 L 13.6 16.4 L 27.5 2 L 29.45 3.55 Q 29.75 3.8 29.9 4.25 Q 30.049999999999997 4.7 30.049999999999997 5.35 L 30.049999999999997 5.85 L 27.8 16.4 L 42.75 16.4 Q 43.95 16.4 44.85 17.299999999999997 Q 45.75 18.199999999999996 45.75 19.4 L 45.75 23.5 Q 45.75 23.85 45.825 24.225 Q 45.900000000000006 24.6 45.75 24.950000000000003 L 39.45 39.45 Q 39 40.5 37.975 41.25 Q 36.95 42 35.8 42 Z M 16.599999999999998 39 L 36.45 39 L 42.75 24.05 L 42.75 19.4 L 24.1 19.4 L 26.75 6.949999999999999 L 16.6 17.65 Z M 16.599999999999998 17.65 L 16.599999999999998 39 Z M 13.599999999999998 16.4 L 13.599999999999998 19.4 L 6.95 19.4 L 6.95 39 L 13.600000000000001 39 L 13.600000000000001 42 L 3.95 42 L 3.95 16.4 Z" stroke-linecap="round" />
</g>
</svg>